PathFileType	4	(X/Y/Z)	1H_rest_slow_right.trc
DataRate	CameraRate	NumFrames	NumMarkers	Units	OrigDataRate	OrigDataStartFrame	OrigNumFrames
250.00	250.00	8	18	mm	250.00	5296	21182
Frame#	Time	c7	r_should	l_should	clavicle	r_upa	r_elb_l	r_elb_m	r_low	r_wri_l	r_wri_m	r_met	l_upa	l_elb_l	l_elb_m	l_low	l_wri_l	l_wri_m	l_met
	X1	Y1	Z1	X2	Y2	Z2	X3	Y3	Z3	X4	Y4	Z4	X5	Y5	Z5	X6	Y6	Z6	X7	Y7	Z7	X8	Y8	Z8	X9	Y9	Z9	X10	Y10	Z10	X11	Y11	Z11	X12	Y12	Z12	X13	Y13	Z13	X14	Y14	Z14	X15	Y15	Z15	X16	Y16	Z16	X17	Y17	Z17	X18	Y18	Z18
5296	21.18000	571.57477	1413.82861	278.42993	610.22430	1364.89917	414.13718	620.61536	1375.78857	105.68459	717.70288	1293.08154	260.55026	674.80157	1187.70374	500.99838	686.33081	1121.76965	524.76581	728.08289	1076.20190	437.71896	752.88483	1229.34656	484.35828	759.12500	1289.78247	448.57962	827.54663	1263.44629	436.73694	788.90216	1362.02637	481.34225	626.87793	1190.23938	23.78382	643.39075	1082.92017	9.52199	591.39783	1042.56775	69.87793	691.39795	921.01398	13.01334	722.28131	849.75861	48.68667	660.45947	827.15204	14.85001	758.55841	765.59161	19.38102
5297	21.18400	571.57709	1413.82263	278.44626	610.21973	1364.89246	414.14206	620.64288	1375.80164	105.69185	717.72302	1293.10352	260.56717	674.78851	1187.69751	501.02084	686.32190	1121.75891	524.77673	728.08722	1076.21094	437.72064	752.85834	1229.34998	484.38031	759.10419	1289.78357	448.60007	827.53772	1263.44043	436.80768	788.85895	1362.03809	481.36380	626.91748	1190.25891	23.79101	643.44238	1082.93286	9.53855	591.43799	1042.58875	69.89285	691.45923	921.02362	13.03734	722.34949	849.77368	48.72556	660.53296	827.16962	14.86824	758.64032	765.60815	19.41865
5298	21.18800	571.58020	1413.81128	278.45721	610.21484	1364.88843	414.15115	620.67108	1375.81470	105.69762	717.74219	1293.11877	260.58774	674.77478	1187.69238	501.04053	686.31268	1121.74866	524.78754	728.08209	1076.21960	437.73318	752.83203	1229.35059	484.40250	759.08624	1289.77869	448.62753	827.53101	1263.42944	436.87756	788.81787	1362.04626	481.38519	626.95465	1190.27039	23.79970	643.49445	1082.94592	9.54480	591.48041	1042.59998	69.89864	691.52441	921.03723	13.05992	722.41455	849.79224	48.75904	660.60291	827.18658	14.88720	758.72052	765.62231	19.46143
5299	21.19200	571.58521	1413.79736	278.46649	610.21198	1364.88306	414.15845	620.70447	1375.82068	105.70588	717.76099	1293.13586	260.60922	674.76251	1187.68726	501.05716	686.30579	1121.73987	524.80066	728.08289	1076.21887	437.74521	752.80835	1229.35278	484.42401	759.07050	1289.76929	448.65109	827.52655	1263.42297	436.94519	788.77557	1362.05383	481.41171	626.99286	1190.27515	23.80418	643.54492	1082.95801	9.55067	591.53760	1042.60034	69.89833	691.58685	921.04181	13.09013	722.47552	849.80554	48.79255	660.66693	827.19678	14.91097	758.79987	765.63562	19.50336
5300	21.19600	571.59125	1413.78833	278.47452	610.21173	1364.87646	414.16217	620.73529	1375.82092	105.71934	717.78070	1293.14954	260.62207	674.75323	1187.67871	501.07394	686.30029	1121.73535	524.81036	728.08081	1076.21167	437.75906	752.79956	1229.34998	484.44409	759.05957	1289.76733	448.67075	827.52161	1263.42102	436.99008	788.74591	1362.05200	481.43069	627.03540	1190.27905	23.80850	643.59784	1082.96057	9.56124	591.60211	1042.59546	69.90464	691.65387	921.04456	13.11562	722.54266	849.81635	48.82319	660.72461	827.19336	14.93700	758.88196	765.65179	19.53942
5301	21.20000	571.60382	1413.78259	278.47894	610.20996	1364.87292	414.16595	620.76611	1375.82971	105.72232	717.80402	1293.16211	260.63104	674.74512	1187.68213	501.08563	686.29712	1121.73022	524.81860	728.08429	1076.20947	437.76376	752.79333	1229.34900	484.46301	759.05048	1289.75867	448.69421	827.51611	1263.42725	437.01520	788.72412	1362.05286	481.44110	627.07959	1190.28516	23.81275	643.65326	1082.96313	9.56539	591.65924	1042.59290	69.90814	691.72119	921.05737	13.13930	722.61865	849.83118	48.85173	660.78186	827.18970	14.96187	758.96405	765.67407	19.57628
5302	21.20400	571.61768	1413.77759	278.47171	610.21118	1364.87537	414.16913	620.79370	1375.83838	105.72995	717.82611	1293.16956	260.65042	674.74695	1187.68567	501.08643	686.29431	1121.73535	524.83051	728.08899	1076.21143	437.77188	752.78284	1229.35986	484.48300	759.04297	1289.76318	448.70316	827.50873	1263.44202	437.01926	788.70911	1362.07056	481.45193	627.12402	1190.29358	23.81477	643.71002	1082.96777	9.56624	591.72186	1042.59338	69.91100	691.79047	921.07703	13.15049	722.69440	849.85681	48.87641	660.84631	827.19324	14.98901	759.04712	765.69928	19.60957
5303	21.20800	571.63098	1413.77966	278.46371	610.21851	1364.88513	414.17346	620.82697	1375.84827	105.73924	717.84497	1293.18347	260.66342	674.75189	1187.69031	501.08844	686.29797	1121.74561	524.84210	728.08636	1076.21240	437.78577	752.78571	1229.37183	484.49847	759.03870	1289.77563	448.70258	827.50238	1263.46277	437.00977	788.69794	1362.09534	481.45779	627.17047	1190.30200	23.81538	643.76721	1082.98535	9.56380	591.76312	1042.61084	69.92366	691.86194	921.09851	13.16223	722.77203	849.88831	48.90414	660.91187	827.20074	15.00967	759.13214	765.72998	19.64227
